<svg width="72" height="54" viewBox="0 0 72 54" fill="none" xmlns="http://www.w3.org/2000/svg">
<path d="M29.728 12.56C30.656 13.2 31.408 13.952 31.984 14.816C32.592 15.648 32.896 16.56 32.896 17.552C32.896 18.608 32.528 19.504 31.792 20.24C31.056 20.976 30.16 21.344 29.104 21.344C28.048 21.344 27.152 20.976 26.416 20.24C25.68 19.504 25.312 18.608 25.312 17.552C25.312 16.976 25.424 16.432 25.648 15.92C25.904 15.408 26.24 14.976 26.656 14.624C26.912 14.4 27.152 14.128 27.376 13.808C27.632 13.488 27.712 13.104 27.616 12.656C27.552 12.336 27.36 12.064 27.04 11.84C26.72 11.584 26.304 11.376 25.792 11.216C25.312 11.056 24.768 10.928 24.16 10.832C23.552 10.736 22.944 10.688 22.336 10.688C21.504 10.688 20.752 10.848 20.08 11.168C19.44 11.456 18.944 11.888 18.592 12.464C18.24 13.04 18.064 13.728 18.064 14.528C18.096 15.328 18.384 16.224 18.928 17.216C19.472 18.24 20.192 19.216 21.088 20.144C22.016 21.04 22.992 21.92 24.016 22.784C25.04 23.648 26.08 24.512 27.136 25.376C28.192 26.24 29.136 27.152 29.968 28.112C30.832 29.04 31.536 30.048 32.08 31.136C32.624 32.224 32.896 33.408 32.896 34.688C32.896 36.352 32.56 37.776 31.888 38.96C31.248 40.112 30.416 41.072 29.392 41.84C28.368 42.576 27.2 43.12 25.888 43.472C24.576 43.824 23.28 44 22 44C20.24 44 18.736 43.776 17.488 43.328C16.272 42.848 15.312 42.368 14.608 41.888C13.68 41.248 12.912 40.496 12.304 39.632C11.728 38.768 11.44 37.84 11.44 36.848C11.44 35.824 11.808 34.944 12.544 34.208C13.28 33.44 14.176 33.056 15.232 33.056C16.288 33.056 17.184 33.44 17.92 34.208C18.656 34.944 19.024 35.824 19.024 36.848C19.024 38.064 18.576 39.04 17.68 39.776C17.424 40 17.168 40.272 16.912 40.592C16.688 40.912 16.624 41.296 16.72 41.744C16.784 42.064 16.976 42.352 17.296 42.608C17.616 42.832 18.016 43.04 18.496 43.232C19.008 43.392 19.552 43.52 20.128 43.616C20.736 43.68 21.36 43.712 22 43.712C22.8 43.712 23.536 43.568 24.208 43.28C24.88 42.96 25.392 42.512 25.744 41.936C26.096 41.36 26.256 40.672 26.224 39.872C26.224 39.072 25.968 38.176 25.456 37.184C24.88 36.16 24.144 35.2 23.248 34.304C22.352 33.408 21.376 32.528 20.32 31.664C19.296 30.768 18.256 29.888 17.2 29.024C16.144 28.16 15.184 27.264 14.32 26.336C13.488 25.376 12.8 24.352 12.256 23.264C11.712 22.176 11.44 20.992 11.44 19.712C11.44 18.08 11.76 16.672 12.4 15.488C13.072 14.304 13.92 13.344 14.944 12.608C15.968 11.84 17.12 11.28 18.4 10.928C19.712 10.576 21.024 10.4 22.336 10.4C24.096 10.4 25.584 10.64 26.8 11.12C28.048 11.568 29.024 12.048 29.728 12.56ZM53.5281 26.144C54.5201 26.304 55.4321 26.64 56.2641 27.152C57.1281 27.664 57.8641 28.32 58.4721 29.12C59.1121 29.92 59.6081 30.832 59.9601 31.856C60.3121 32.848 60.4881 33.904 60.4881 35.024C60.4881 36.272 60.2641 37.44 59.8161 38.528C59.4001 39.616 58.8241 40.576 58.0881 41.408C57.3521 42.208 56.4881 42.848 55.4961 43.328C54.5041 43.776 53.4481 44 52.3281 44H44.6001H39.0801H35.7681V43.712C36.1201 43.712 36.4081 43.6 36.6321 43.376C36.8561 43.152 36.9681 42.864 36.9681 42.512V41.312V22.976V18.512V14.336V13.616V13.088V11.888C36.9681 11.536 36.8561 11.248 36.6321 11.024C36.4081 10.8 36.1201 10.688 35.7681 10.688V10.4H50.9361C51.9281 10.4 52.8721 10.608 53.7681 11.024C54.6641 11.44 55.4321 12.016 56.0721 12.752C56.7121 13.456 57.2241 14.304 57.6081 15.296C57.9921 16.256 58.1841 17.28 58.1841 18.368C58.1841 20.16 57.7361 21.744 56.8401 23.12C55.9441 24.496 54.8401 25.504 53.5281 26.144ZM44.6001 22.832V26.048H48.0081C48.4241 26.016 48.8561 25.84 49.3041 25.52C49.7521 25.2 50.1521 24.72 50.5041 24.08C50.8881 23.44 51.1921 22.656 51.4161 21.728C51.6721 20.768 51.8001 19.648 51.8001 18.368C51.8001 17.088 51.6721 15.968 51.4161 15.008C51.1921 14.048 50.8881 13.248 50.5041 12.608C50.1201 11.968 49.7041 11.488 49.2561 11.168C48.8081 10.848 48.3761 10.688 47.9601 10.688H45.8001C45.4481 10.688 45.1601 10.8 44.9361 11.024C44.7121 11.248 44.6001 11.536 44.6001 11.888V16.304V17.792V22.832ZM48.5841 43.712C49.0321 43.712 49.5121 43.536 50.0241 43.184C50.5361 42.832 51.0001 42.304 51.4161 41.6C51.8321 40.864 52.1681 39.952 52.4241 38.864C52.7121 37.776 52.8561 36.496 52.8561 35.024C52.8561 33.552 52.7121 32.272 52.4241 31.184C52.1681 30.096 51.8321 29.2 51.4161 28.496C51.0001 27.76 50.5361 27.216 50.0241 26.864C49.5121 26.48 49.0321 26.288 48.5841 26.288H44.6001V36.608V39.632V40.064V42.512C44.6001 42.864 44.7121 43.152 44.9361 43.376C45.1601 43.6 45.4481 43.712 45.8001 43.712H46.9521H48.5841Z" fill="white"/>
</svg>
